<mxfile host="app.diagrams.net" modified="2022-09-10T17:59:38.642Z" agent="5.0 (Macintosh; Intel Mac OS X 10_15_7) AppleWebKit/605.1.15 (KHTML, like Gecko) Version/15.6.1 Safari/605.1.15" etag="4shpV1NyQQWlt-pF4OEX" version="20.2.8" type="github">
  <diagram id="H2ssWn8BnHPqTmGb6e0n" name="Página-1">
    <mxGraphModel dx="1252" dy="564" grid="1" gridSize="10" guides="1" tooltips="1" connect="1" arrows="1" fold="1" page="1" pageScale="1" pageWidth="827" pageHeight="1169" math="0" shadow="0">
      <root>
        <mxCell id="0" />
        <mxCell id="1" parent="0" />
        <mxCell id="fPPv9XgHUiOGnw6XsnZO-1" value="" style="html=1;dropTarget=0;fillColor=#fff2cc;strokeColor=#d6b656;" vertex="1" parent="1">
          <mxGeometry x="650" y="340" width="530" height="310" as="geometry" />
        </mxCell>
        <mxCell id="fPPv9XgHUiOGnw6XsnZO-2" value="" style="shape=module;jettyWidth=8;jettyHeight=4;" vertex="1" parent="fPPv9XgHUiOGnw6XsnZO-1">
          <mxGeometry x="1" width="20" height="20" relative="1" as="geometry">
            <mxPoint x="-27" y="7" as="offset" />
          </mxGeometry>
        </mxCell>
        <mxCell id="fPPv9XgHUiOGnw6XsnZO-3" style="edgeStyle=orthogonalEdgeStyle;rounded=0;orthogonalLoop=1;jettySize=auto;html=1;fillColor=#FF3333;" edge="1" parent="1" source="fPPv9XgHUiOGnw6XsnZO-4" target="fPPv9XgHUiOGnw6XsnZO-17">
          <mxGeometry relative="1" as="geometry" />
        </mxCell>
        <mxCell id="fPPv9XgHUiOGnw6XsnZO-4" value="«component»&lt;br&gt;&lt;b&gt;:AdministracionUbicacion&lt;br&gt;&lt;/b&gt;" style="html=1;dropTarget=0;" vertex="1" parent="1">
          <mxGeometry x="900" y="451" width="240" height="99" as="geometry" />
        </mxCell>
        <mxCell id="fPPv9XgHUiOGnw6XsnZO-5" value="" style="shape=module;jettyWidth=8;jettyHeight=4;" vertex="1" parent="fPPv9XgHUiOGnw6XsnZO-4">
          <mxGeometry x="1" width="20" height="20" relative="1" as="geometry">
            <mxPoint x="-27" y="7" as="offset" />
          </mxGeometry>
        </mxCell>
        <mxCell id="fPPv9XgHUiOGnw6XsnZO-6" value="" style="html=1;rounded=0;" vertex="1" parent="1">
          <mxGeometry x="1130" y="490" width="30" height="30" as="geometry" />
        </mxCell>
        <mxCell id="fPPv9XgHUiOGnw6XsnZO-7" value="" style="html=1;rounded=0;" vertex="1" parent="1">
          <mxGeometry x="1000" y="541" width="30" height="30" as="geometry" />
        </mxCell>
        <mxCell id="fPPv9XgHUiOGnw6XsnZO-8" value="" style="rounded=0;orthogonalLoop=1;jettySize=auto;html=1;endArrow=none;endFill=0;sketch=0;targetPerimeterSpacing=0;fillColor=#FF3333;startArrow=none;entryX=1;entryY=0.5;entryDx=0;entryDy=0;" edge="1" parent="1" source="fPPv9XgHUiOGnw6XsnZO-14" target="fPPv9XgHUiOGnw6XsnZO-6">
          <mxGeometry relative="1" as="geometry">
            <mxPoint x="1430" y="505" as="sourcePoint" />
            <mxPoint x="1400" y="505" as="targetPoint" />
          </mxGeometry>
        </mxCell>
        <mxCell id="fPPv9XgHUiOGnw6XsnZO-9" value="&amp;lt;&amp;lt;component&amp;gt;&amp;gt;" style="text;html=1;align=center;verticalAlign=middle;resizable=0;points=[];autosize=1;strokeColor=none;fillColor=none;" vertex="1" parent="1">
          <mxGeometry x="965" y="340" width="110" height="30" as="geometry" />
        </mxCell>
        <mxCell id="fPPv9XgHUiOGnw6XsnZO-10" value="GestorUbicacion" style="text;html=1;align=center;verticalAlign=middle;resizable=0;points=[];autosize=1;strokeColor=none;fillColor=none;" vertex="1" parent="1">
          <mxGeometry x="965" y="370" width="110" height="30" as="geometry" />
        </mxCell>
        <mxCell id="fPPv9XgHUiOGnw6XsnZO-12" value="" style="rounded=0;orthogonalLoop=1;jettySize=auto;html=1;endArrow=none;endFill=0;sketch=0;targetPerimeterSpacing=0;fillColor=#FF3333;exitX=0.5;exitY=1;exitDx=0;exitDy=0;startArrow=none;" edge="1" parent="1" source="fPPv9XgHUiOGnw6XsnZO-11">
          <mxGeometry relative="1" as="geometry">
            <mxPoint x="1005" y="800" as="sourcePoint" />
            <mxPoint x="1015" y="660" as="targetPoint" />
          </mxGeometry>
        </mxCell>
        <mxCell id="fPPv9XgHUiOGnw6XsnZO-13" value="Consulta Reglas" style="text;html=1;align=center;verticalAlign=middle;resizable=0;points=[];autosize=1;strokeColor=none;fillColor=none;" vertex="1" parent="1">
          <mxGeometry x="1186" y="470" width="110" height="30" as="geometry" />
        </mxCell>
        <mxCell id="fPPv9XgHUiOGnw6XsnZO-14" value="" style="ellipse;whiteSpace=wrap;html=1;align=center;aspect=fixed;resizable=0;points=[];outlineConnect=0;sketch=0;" vertex="1" parent="1">
          <mxGeometry x="1200" y="500" width="10" height="10" as="geometry" />
        </mxCell>
        <mxCell id="fPPv9XgHUiOGnw6XsnZO-16" value="Gestor Ubicacion" style="text;html=1;align=center;verticalAlign=middle;resizable=0;points=[];autosize=1;strokeColor=none;fillColor=none;" vertex="1" parent="1">
          <mxGeometry x="1010" y="650" width="120" height="30" as="geometry" />
        </mxCell>
        <mxCell id="fPPv9XgHUiOGnw6XsnZO-17" value="«component»&lt;br&gt;&lt;b&gt;:ReglaUbicacion&lt;br&gt;&lt;/b&gt;" style="html=1;dropTarget=0;" vertex="1" parent="1">
          <mxGeometry x="680" y="506.5" width="190" height="99" as="geometry" />
        </mxCell>
        <mxCell id="fPPv9XgHUiOGnw6XsnZO-18" value="" style="shape=module;jettyWidth=8;jettyHeight=4;" vertex="1" parent="fPPv9XgHUiOGnw6XsnZO-17">
          <mxGeometry x="1" width="20" height="20" relative="1" as="geometry">
            <mxPoint x="-27" y="7" as="offset" />
          </mxGeometry>
        </mxCell>
        <mxCell id="fPPv9XgHUiOGnw6XsnZO-19" value="Gestor Reglas" style="text;html=1;align=center;verticalAlign=middle;resizable=0;points=[];autosize=1;strokeColor=none;fillColor=none;" vertex="1" parent="1">
          <mxGeometry x="700" y="470" width="100" height="30" as="geometry" />
        </mxCell>
        <mxCell id="fPPv9XgHUiOGnw6XsnZO-11" value="" style="ellipse;whiteSpace=wrap;html=1;align=center;aspect=fixed;resizable=0;points=[];outlineConnect=0;sketch=0;" vertex="1" parent="1">
          <mxGeometry x="1010" y="650" width="10" height="10" as="geometry" />
        </mxCell>
        <mxCell id="fPPv9XgHUiOGnw6XsnZO-20" value="" style="rounded=0;orthogonalLoop=1;jettySize=auto;html=1;endArrow=none;endFill=0;sketch=0;sourcePerimeterSpacing=0;fillColor=#FF3333;exitX=0.5;exitY=1;exitDx=0;exitDy=0;" edge="1" parent="1" source="fPPv9XgHUiOGnw6XsnZO-7" target="fPPv9XgHUiOGnw6XsnZO-11">
          <mxGeometry relative="1" as="geometry">
            <mxPoint x="1015" y="571" as="sourcePoint" />
            <mxPoint x="1015" y="660" as="targetPoint" />
          </mxGeometry>
        </mxCell>
      </root>
    </mxGraphModel>
  </diagram>
</mxfile>
